<mxfile host="Electron" modified="2023-07-07T12:11:42.049Z" agent="Mozilla/5.0 (Windows NT 10.0; WOW64) AppleWebKit/537.36 (KHTML, like Gecko) draw.io/21.5.1 Chrome/112.0.5615.204 Electron/24.6.0 Safari/537.36" etag="023oMY5SgdLu3kPw-rsw" version="21.5.1" type="device">
  <diagram id="Ov1Z_qGPZPrujqolC1JJ" name="Image Partition">
    <mxGraphModel dx="915" dy="823" grid="1" gridSize="10" guides="1" tooltips="1" connect="1" arrows="1" fold="1" page="1" pageScale="1" pageWidth="1169" pageHeight="827" math="0" shadow="0">
      <root>
        <mxCell id="0" />
        <mxCell id="1" parent="0" />
        <mxCell id="r4uNizmCAbM2KAJH709Y-1" value="" style="rounded=0;whiteSpace=wrap;html=1;fillColor=#f8cecc;strokeColor=#b85450;" parent="1" vertex="1">
          <mxGeometry x="200" y="120" width="640" height="640" as="geometry" />
        </mxCell>
        <mxCell id="iX1cG4AnmRUiF7FhaAYw-4" value="" style="rounded=0;whiteSpace=wrap;html=1;fillColor=#82B366;strokeColor=#82b366;opacity=75;" vertex="1" parent="1">
          <mxGeometry x="188" y="108" width="185" height="185" as="geometry" />
        </mxCell>
        <mxCell id="iX1cG4AnmRUiF7FhaAYw-3" value="" style="rounded=0;whiteSpace=wrap;html=1;fillColor=#d5e8d4;strokeColor=#82b366;opacity=75;" vertex="1" parent="1">
          <mxGeometry x="200.5" y="120.5" width="160" height="160" as="geometry" />
        </mxCell>
        <mxCell id="iX1cG4AnmRUiF7FhaAYw-2" value="" style="rounded=0;whiteSpace=wrap;html=1;fillColor=#fff2cc;strokeColor=#d6b656;" vertex="1" parent="1">
          <mxGeometry x="188" y="108" width="51" height="51" as="geometry" />
        </mxCell>
        <mxCell id="iX1cG4AnmRUiF7FhaAYw-5" value="" style="rounded=0;whiteSpace=wrap;html=1;fillColor=#82B366;strokeColor=#82b366;opacity=75;" vertex="1" parent="1">
          <mxGeometry x="350" y="108" width="185" height="185" as="geometry" />
        </mxCell>
        <mxCell id="iX1cG4AnmRUiF7FhaAYw-6" value="" style="rounded=0;whiteSpace=wrap;html=1;fillColor=#d5e8d4;strokeColor=#82b366;opacity=75;" vertex="1" parent="1">
          <mxGeometry x="362.5" y="120.5" width="160" height="160" as="geometry" />
        </mxCell>
        <mxCell id="iX1cG4AnmRUiF7FhaAYw-7" value="" style="rounded=0;whiteSpace=wrap;html=1;fillColor=#fff2cc;strokeColor=#d6b656;" vertex="1" parent="1">
          <mxGeometry x="417" y="170" width="51" height="51" as="geometry" />
        </mxCell>
      </root>
    </mxGraphModel>
  </diagram>
</mxfile>
